<?xml version="1.0" standalone="no"?>
<!DOCTYPE svg PUBLIC "-//W3C//DTD SVG 20010904//EN"
 "http://www.w3.org/TR/2001/REC-SVG-20010904/DTD/svg10.dtd">
<svg version="1.0" xmlns="http://www.w3.org/2000/svg"
 width="100.000000pt" height="100.000000pt" viewBox="0 0 100.000000 100.000000"
 preserveAspectRatio="xMidYMid meet">

<g transform="translate(0.000000,100.000000) scale(0.100000,-0.100000)"
fill="#000000" stroke="none">
<path d="M149 885 c-47 -25 -50 -48 -52 -398 l-2 -326 33 -33 32 -33 340 0
340 0 32 33 33 33 -2 326 c-2 352 -5 373 -54 398 -41 22 -661 21 -700 0z m702
-34 c20 -20 29 -39 29 -61 0 -30 -1 -31 -22 -16 -34 24 -682 24 -716 0 -21
-15 -22 -14 -22 16 0 22 9 41 29 61 l29 29 322 0 322 0 29 -29z m-18 -92 c28
-13 47 -48 47 -85 0 -24 -1 -24 -22 -10 -34 24 -682 24 -716 0 -21 -14 -22
-14 -22 10 0 36 19 72 44 84 30 15 637 16 669 1z m11 -120 c21 -17 26 -29 26
-65 0 -45 0 -45 -22 -30 -34 24 -662 24 -696 0 -22 -15 -22 -15 -22 30 0 36 5
48 26 65 26 20 38 21 344 21 306 0 318 -1 344 -21z m4 -125 c15 -10 22 -25 22
-49 l0 -34 -117 -3 -117 -3 -29 -43 c-64 -95 -150 -95 -214 0 l-29 43 -117 3
-117 3 0 34 c0 64 5 65 370 65 278 0 329 -2 348 -16z m-504 -110 c9 -3 25 -23
37 -43 27 -48 66 -71 119 -71 53 0 92 23 119 71 12 20 28 40 37 43 9 3 60 6
115 6 l99 0 0 -123 c0 -177 34 -162 -370 -162 -404 0 -370 -15 -370 162 l0
123 99 0 c55 0 106 -3 115 -6z"/>
<path d="M180 205 c0 -14 5 -25 10 -25 6 0 10 11 10 25 0 14 -4 25 -10 25 -5
0 -10 -11 -10 -25z"/>
<path d="M256 223 c-12 -12 -6 -43 9 -43 8 0 15 9 15 19 0 21 -13 34 -24 24z"/>
<path d="M330 205 c0 -17 5 -25 13 -22 16 5 16 39 0 45 -8 2 -13 -6 -13 -23z"/>
<path d="M410 205 c0 -14 5 -25 10 -25 6 0 10 11 10 25 0 14 -4 25 -10 25 -5
0 -10 -11 -10 -25z"/>
<path d="M490 205 c0 -14 5 -25 10 -25 6 0 10 11 10 25 0 14 -4 25 -10 25 -5
0 -10 -11 -10 -25z"/>
<path d="M570 205 c0 -14 5 -25 10 -25 6 0 10 11 10 25 0 14 -4 25 -10 25 -5
0 -10 -11 -10 -25z"/>
<path d="M644 215 c-3 -8 -3 -19 1 -25 11 -18 25 -11 25 15 0 27 -17 34 -26
10z"/>
<path d="M726 223 c-12 -12 -6 -43 9 -43 8 0 15 9 15 19 0 21 -13 34 -24 24z"/>
<path d="M800 205 c0 -14 5 -25 10 -25 6 0 10 11 10 25 0 14 -4 25 -10 25 -5
0 -10 -11 -10 -25z"/>
</g>
</svg>
